<?xml version="1.0" encoding="UTF-8"?><svg id="konzert" xmlns="http://www.w3.org/2000/svg" viewBox="0 0 264.2 264.2"><defs><style>.cls-1{fill:#72bf93;}.cls-2{fill:#1d1d1b;}.cls-3{fill:none;stroke:#1d1d1b;stroke-linecap:round;stroke-linejoin:round;stroke-width:8px;}</style></defs><circle class="cls-1" cx="132.1" cy="131.42" r="132.1"/><g><g><path class="cls-2" d="M40.91,162.61l2.73-11.44c1.16,3.4,3.79,6.96,5.83,7.04,1.65,.06,2.38-1.27,2.46-3.47,.24-6.29-10.07-.18-9.28-20.71,.34-8.9,3.29-16.55,8.05-16.37,2.94,.11,5.27,2.93,6.97,6.98l-2.55,11.34c-.93-2.97-2.79-5.67-4.87-5.75-1.29-.05-2.2,1.38-2.28,3.37-.21,5.55,10.03,.17,9.24,20.92-.37,9.64-3.53,16.44-8.47,16.25-3.11-.12-6.18-3.28-7.83-8.17Z"/><path class="cls-2" d="M69.66,170.32l.19-5.03c-1.22,3.73-3.39,6.16-5.61,6.08-2.65-.1-5.74-5.57-5.3-16.88,.47-12.26,3.92-16.21,6.57-16.11,2.29,.09,4.25,2.37,5.14,6.18l.19-5.03c.17-4.4-1-7.49-3.22-7.57-1.72-.07-3.51,1.86-5.04,5.26l-1.61-11.29c2.43-5.47,5.49-7.66,8.14-7.56,4.15,.16,7.88,4.81,7.28,20.53l-1.21,31.63-5.51-.21Zm.5-12.99l.17-4.5c-.48-2.43-1.72-3.63-2.94-3.68-1.43-.05-2.83,1.78-2.98,5.76-.15,3.98,1.1,5.92,2.53,5.97,1.22,.05,2.55-1.16,3.22-3.55Z"/><path class="cls-2" d="M83.63,170.85l-4.86-50.86,5.8,.22,2.71,32.21,5.13-31.9,5.83,.22-8.74,50.33-5.87-.23Z"/><path class="cls-2" d="M108.15,171.79l.19-5.03c-1.22,3.73-3.39,6.16-5.61,6.08-2.65-.1-5.74-5.57-5.3-16.88,.47-12.26,3.92-16.21,6.57-16.11,2.29,.09,4.25,2.37,5.14,6.18l.19-5.03c.17-4.4-1-7.49-3.22-7.57-1.72-.07-3.51,1.86-5.04,5.26l-1.61-11.29c2.43-5.47,5.49-7.66,8.14-7.56,4.15,.16,7.88,4.81,7.28,20.53l-1.21,31.63-5.51-.21Zm.5-12.99l.17-4.5c-.48-2.43-1.72-3.63-2.94-3.68-1.43-.05-2.83,1.78-2.98,5.76s1.1,5.92,2.53,5.97c1.22,.05,2.55-1.16,3.22-3.55Z"/><path class="cls-2" d="M117.68,172.16l1.94-50.59,5.51,.21-1.94,50.6-5.51-.21Zm2.08-64.44c.2-5.13,1.75-9.16,3.5-9.1,1.75,.07,3.03,4.21,2.83,9.34-.2,5.13-1.79,9.27-3.54,9.2-1.75-.07-2.99-4.31-2.79-9.44Z"/><path class="cls-2" d="M131.64,172.69l-4.86-50.86,5.8,.22,2.71,32.21,5.13-31.9,5.84,.22-8.74,50.33-5.87-.23Z"/><path class="cls-2" d="M156.17,173.63l.19-5.03c-1.22,3.73-3.39,6.16-5.61,6.08-2.65-.1-5.74-5.57-5.3-16.88,.47-12.26,3.92-16.21,6.57-16.11,2.29,.09,4.25,2.37,5.14,6.18l.19-5.03c.17-4.4-1-7.49-3.22-7.57-1.72-.07-3.51,1.86-5.04,5.26l-1.61-11.29c2.43-5.47,5.49-7.66,8.14-7.56,4.15,.16,7.88,4.81,7.28,20.53l-1.21,31.63-5.51-.21Zm.5-12.99l.17-4.5c-.48-2.43-1.72-3.63-2.94-3.68-1.43-.05-2.83,1.78-2.98,5.76-.15,3.98,1.1,5.92,2.53,5.97,1.22,.05,2.55-1.16,3.22-3.55Z"/><path class="cls-2" d="M164.48,167.34l2.73-11.43c1.16,3.4,3.79,6.96,5.83,7.04,1.65,.06,2.38-1.27,2.46-3.47,.24-6.29-10.07-.18-9.28-20.71,.34-8.9,3.29-16.55,8.05-16.37,2.94,.11,5.27,2.93,6.97,6.98l-2.55,11.34c-.93-2.97-2.79-5.67-4.87-5.75-1.29-.05-2.21,1.38-2.28,3.37-.21,5.55,10.03,.17,9.24,20.92-.37,9.64-3.53,16.44-8.47,16.25-3.11-.12-6.18-3.28-7.83-8.17Z"/><path class="cls-2" d="M184.69,161.09l.88-23.05-2.87-.11,.53-13.93,2.87,.11,.53-13.83,5.51,.21-.53,13.83,3.51,.13-.53,13.93-3.51-.13-.71,18.54c-.11,2.93,.38,5.16,1.31,5.19,.61,.02,1.24-.58,1.44-1.2l.61,12.19c-.75,1.86-2.17,3.27-4.21,3.2-3.51-.13-5.21-5.34-4.83-15.08Z"/><path class="cls-2" d="M209.17,143.56c.45-11.84,5.14-13.44,5.34-18.68,.09-2.3-.42-4.11-1.96-4.17-1.36-.05-2.84,1.99-3.97,5.3l-3-11.65c2.22-6.42,5.32-9.66,8.25-9.54,4.72,.18,7.4,7,7.02,17.05-.57,14.98-6.17,15.92-6.47,23.77-.07,1.78,.12,3.36,.38,4.21l-4.9,3.38c-.59-2.44-.86-5.7-.71-9.68Zm-1,23.36c.2-5.24,1.91-9.68,3.74-9.61,1.83,.07,3.19,4.63,2.99,9.87-.2,5.34-1.92,9.79-3.74,9.72-1.83-.07-3.19-4.63-2.99-9.98Z"/></g><path class="cls-3" d="M235.78,192.83l-133.56-6.55-18.3,31.85c-2.93,3.05-8.08,.99-8.09-3.24l1.52-29.73-49.33-2.39V88.94l207.76-6.13v110.02Z"/></g></svg>